<mxfile host="65bd71144e">
    <diagram id="ODJTM8fMoJiAzncZL6bQ" name="Page-1">
        <mxGraphModel dx="2049" dy="1113" grid="1" gridSize="10" guides="1" tooltips="1" connect="1" arrows="1" fold="1" page="1" pageScale="1" pageWidth="850" pageHeight="1100" math="0" shadow="0">
            <root>
                <mxCell id="0"/>
                <mxCell id="1" parent="0"/>
                <mxCell id="2" value="Cabecera" style="rounded=0;whiteSpace=wrap;html=1;" parent="1" vertex="1">
                    <mxGeometry x="170" y="10" width="510" height="100" as="geometry"/>
                </mxCell>
                <mxCell id="3" value="Menu de navegacion" style="rounded=0;whiteSpace=wrap;html=1;" parent="1" vertex="1">
                    <mxGeometry x="70" y="110" width="100" height="830" as="geometry"/>
                </mxCell>
                <mxCell id="4" value="Descripcion de la navidad" style="rounded=0;whiteSpace=wrap;html=1;" parent="1" vertex="1">
                    <mxGeometry x="185" y="120" width="480" height="270" as="geometry"/>
                </mxCell>
                <mxCell id="5" value="Tradicion de la navidad en el colegio" style="rounded=0;whiteSpace=wrap;html=1;" parent="1" vertex="1">
                    <mxGeometry x="185" y="400" width="480" height="270" as="geometry"/>
                </mxCell>
                <mxCell id="6" value="Imagenes explicativas" style="rounded=0;whiteSpace=wrap;html=1;" parent="1" vertex="1">
                    <mxGeometry x="190" y="680" width="230" height="240" as="geometry"/>
                </mxCell>
                <mxCell id="7" value="Imagenes explicativas" style="rounded=0;whiteSpace=wrap;html=1;" parent="1" vertex="1">
                    <mxGeometry x="430" y="680" width="230" height="240" as="geometry"/>
                </mxCell>
                <mxCell id="8" value="Pie de pagina" style="rounded=0;whiteSpace=wrap;html=1;" parent="1" vertex="1">
                    <mxGeometry x="170" y="940" width="510" height="150" as="geometry"/>
                </mxCell>
            </root>
        </mxGraphModel>
    </diagram>
</mxfile>